<?xml version="1.0" encoding="UTF-8" standalone="no"?>
<!-- Generator: Adobe Illustrator 19.0.0, SVG Export Plug-In . SVG Version: 6.00 Build 0)  -->

<svg
   xmlns:dc="http://purl.org/dc/elements/1.1/"
   xmlns:cc="http://creativecommons.org/ns#"
   xmlns:rdf="http://www.w3.org/1999/02/22-rdf-syntax-ns#"
   xmlns:svg="http://www.w3.org/2000/svg"
   xmlns="http://www.w3.org/2000/svg"
   xmlns:sodipodi="http://sodipodi.sourceforge.net/DTD/sodipodi-0.dtd"
   xmlns:inkscape="http://www.inkscape.org/namespaces/inkscape"
   version="1.1"
   id="Layer_1"
   x="0px"
   y="0px"
   viewBox="0 0 329.954 329.954"
   style="enable-background:new 0 0 329.954 329.954;"
   xml:space="preserve"
   width="512px"
   height="512px"
   inkscape:version="0.91 r13725"
   sodipodi:docname="checkbox_unchecked.svg"><metadata
     id="metadata38"><rdf:RDF><cc:Work
         rdf:about=""><dc:format>image/svg+xml</dc:format><dc:type
           rdf:resource="http://purl.org/dc/dcmitype/StillImage" /><dc:title></dc:title></cc:Work></rdf:RDF></metadata><defs
     id="defs36" /><sodipodi:namedview
     pagecolor="#ffffff"
     bordercolor="#666666"
     borderopacity="1"
     objecttolerance="10"
     gridtolerance="10"
     guidetolerance="10"
     inkscape:pageopacity="0"
     inkscape:pageshadow="2"
     inkscape:window-width="640"
     inkscape:window-height="480"
     id="namedview34"
     showgrid="false"
     inkscape:zoom="0.4609375"
     inkscape:cx="256"
     inkscape:cy="256"
     inkscape:window-x="0"
     inkscape:window-y="27"
     inkscape:window-maximized="0"
     inkscape:current-layer="Layer_1" /><ellipse
     style="fill:#95a5a6;stroke:none"
     id="path3366"
     cx="152.63622"
     cy="166.54593"
     rx="152.63622"
     ry="146.63077" /><path
     id="XMLID_89_"
     d="m 116.15659,254.38996 c 2.61365,2.51083 6.15923,3.9211 9.85532,3.9211 3.69703,0 7.24167,-1.41117 9.8544,-3.9211 L 325.87139,71.860592 c 2.61458,-2.51082 4.08262,-5.916002 4.08262,-9.466675 0,-3.551565 -1.46804,-6.956747 -4.08262,-9.467567 L 286.45103,15.057866 c -5.44194,-5.227825 -14.26685,-5.228718 -19.70972,0 L 126.01563,150.24851 86.594333,112.37824 c -2.613654,-2.51082 -6.159229,-3.92198 -9.855323,-3.92198 -3.696095,0 -7.24074,1.41116 -9.854394,3.92198 l -39.420362,37.86937 c -5.441937,5.22872 -5.441937,13.70553 0,18.93424 l 88.692336,85.20811 z"
     style="fill:#7f8c8d"
     inkscape:connector-curvature="0" /><g
     id="g4" /><g
     id="g6" /><g
     id="g8" /><g
     id="g10" /><g
     id="g12" /><g
     id="g14" /><g
     id="g16" /><g
     id="g18" /><g
     id="g20" /><g
     id="g22" /><g
     id="g24" /><g
     id="g26" /><g
     id="g28" /><g
     id="g30" /><g
     id="g32" /></svg>